<svg width="19" height="30" viewBox="0 0 19 30" fill="none" xmlns="http://www.w3.org/2000/svg">
<path d="M9.20661 0L9.00635 0.68422V20.521L9.20661 20.7213L18.4185 15.2809L9.20661 0Z" fill="url(#paint0_linear_102_1192)"/>
<path d="M9.20637 0L0 15.2809L9.20637 20.7213V11.0921V0Z" fill="url(#paint1_linear_102_1192)"/>
<path d="M9.20549 22.4624L9.09424 22.6014V29.6717L9.20549 29.9999L18.423 17.022L9.20549 22.4624Z" fill="url(#paint2_linear_102_1192)"/>
<path d="M9.20637 29.9999V22.4624L0 17.022L9.20637 29.9999Z" fill="url(#paint3_linear_102_1192)"/>
<path d="M18.4175 15.281L9.20557 20.7214V11.0923L18.4175 15.281Z" fill="url(#paint4_linear_102_1192)"/>
<path d="M9.20637 11.0923V20.7214L0 15.281L9.20637 11.0923Z" fill="url(#paint5_linear_102_1192)"/>
<defs>
<linearGradient id="paint0_linear_102_1192" x1="13.7124" y1="0" x2="13.7124" y2="20.7213" gradientUnits="userSpaceOnUse">
<stop stop-color="#09CBA8"/>
<stop offset="1" stop-color="#00A389"/>
</linearGradient>
<linearGradient id="paint1_linear_102_1192" x1="4.60319" y1="0" x2="4.60319" y2="20.7213" gradientUnits="userSpaceOnUse">
<stop stop-color="#09CBA8"/>
<stop offset="1" stop-color="#00A389"/>
</linearGradient>
<linearGradient id="paint2_linear_102_1192" x1="13.7586" y1="17.022" x2="13.7586" y2="29.9999" gradientUnits="userSpaceOnUse">
<stop stop-color="#09CBA8"/>
<stop offset="1" stop-color="#00A389"/>
</linearGradient>
<linearGradient id="paint3_linear_102_1192" x1="4.60319" y1="17.022" x2="4.60319" y2="29.9999" gradientUnits="userSpaceOnUse">
<stop stop-color="#09CBA8"/>
<stop offset="1" stop-color="#00A389"/>
</linearGradient>
<linearGradient id="paint4_linear_102_1192" x1="13.8115" y1="11.0923" x2="13.8115" y2="20.7214" gradientUnits="userSpaceOnUse">
<stop stop-color="#09CBA8"/>
<stop offset="1" stop-color="#00A389"/>
</linearGradient>
<linearGradient id="paint5_linear_102_1192" x1="4.60319" y1="11.0923" x2="4.60319" y2="20.7214" gradientUnits="userSpaceOnUse">
<stop stop-color="#09CBA8"/>
<stop offset="1" stop-color="#00A389"/>
</linearGradient>
</defs>
</svg>
