<svg width="25" height="25" viewBox="0 0 25 25" fill="none" xmlns="http://www.w3.org/2000/svg">
<g clip-path="url(#clip0_102_1913)">
<path d="M12.2494 9.43167C8.55858 9.43167 4.86857 9.43421 1.17771 9.42575C0.941641 9.4249 0.678492 9.39444 0.476265 9.28613C-0.170185 8.94091 -0.154109 8.08293 0.497418 7.64632C1.94516 6.67495 3.39883 5.7112 4.84911 4.74407C7.08207 3.25571 9.31503 1.76566 11.548 0.277304C12.1014 -0.0916117 12.3907 -0.0941501 12.9399 0.272228C16.5893 2.70318 20.2404 5.13244 23.8813 7.57609C24.1115 7.73093 24.3331 7.97631 24.4338 8.22931C24.6318 8.7243 24.2832 9.27937 23.7603 9.39106C23.597 9.42575 23.4244 9.43082 23.2569 9.43082C19.588 9.43252 15.9191 9.43167 12.2494 9.43167ZM22.1416 8.05077C22.0426 7.97547 22.0105 7.94839 21.975 7.9247C18.8011 5.80766 15.6247 3.69316 12.455 1.5702C12.2757 1.45005 12.1657 1.48982 12.0117 1.59305C8.91057 3.66524 5.80609 5.7332 2.70161 7.80201C2.60092 7.86885 2.50446 7.94247 2.35385 8.04993C8.97319 8.05077 15.5215 8.05077 22.1416 8.05077Z" fill="white"/>
<path d="M12.2141 24.9972C9.07242 24.9972 5.93071 25.0039 2.789 24.9938C1.31418 24.9895 0.342812 23.546 0.887725 22.199C1.1991 21.4281 1.93355 20.9382 2.80677 20.9365C4.78504 20.9323 6.76331 20.9348 8.74074 20.9348C13.0459 20.9348 17.351 20.9331 21.6562 20.9365C22.8729 20.9374 23.7665 21.8292 23.7487 23.0062C23.7318 24.1214 22.8484 24.9904 21.7019 24.9946C19.6178 25.0022 17.5338 24.9972 15.4506 24.9972C14.3718 24.998 13.293 24.998 12.2141 24.9972ZM12.2294 23.6493C15.2848 23.6493 18.3402 23.6493 21.3964 23.6493C21.5022 23.6493 21.608 23.6535 21.7137 23.6459C22.1283 23.6129 22.405 23.3353 22.4008 22.9605C22.3966 22.5857 22.1182 22.3166 21.7002 22.2878C21.6266 22.2827 21.5521 22.2861 21.4785 22.2861C15.3254 22.2861 9.17142 22.2861 3.0183 22.2861C2.4167 22.2861 2.0994 22.518 2.09347 22.9588C2.08755 23.4089 2.41331 23.6501 3.03184 23.6501C6.0974 23.6493 9.1638 23.6493 12.2294 23.6493Z" fill="white"/>
<path d="M3.43934 15.181C3.43934 14.0285 3.43934 12.8761 3.43934 11.7237C3.43934 11.6179 3.43596 11.5113 3.44949 11.4072C3.49857 11.0324 3.77695 10.7794 4.1281 10.7827C4.46994 10.7861 4.73563 11.0264 4.79063 11.3894C4.80501 11.4825 4.80332 11.579 4.80332 11.6737C4.80417 14.0108 4.80417 16.3469 4.80247 18.684C4.80247 18.7999 4.79909 18.9175 4.77624 19.0309C4.71109 19.3541 4.44456 19.5758 4.12979 19.5809C3.80572 19.586 3.5248 19.355 3.46134 19.0182C3.44019 18.9048 3.43934 18.7872 3.43934 18.6713C3.43849 17.5078 3.43934 16.3444 3.43934 15.181Z" fill="white"/>
<path d="M19.6894 15.1601C19.6894 13.9654 19.686 12.7706 19.6911 11.5759C19.6936 11.058 20.0287 10.7196 20.4628 10.7907C20.7615 10.8397 20.9654 11.014 21.0229 11.3178C21.0525 11.4718 21.0525 11.6326 21.0525 11.7908C21.0542 14.0534 21.0534 16.3159 21.0534 18.5794C21.0534 18.6851 21.0585 18.7917 21.0492 18.8967C21.0145 19.3079 20.7276 19.5897 20.3579 19.5812C19.9982 19.5736 19.7275 19.2986 19.6928 18.9034C19.6843 18.8087 19.6886 18.7131 19.6886 18.6183C19.6894 17.465 19.6894 16.3126 19.6894 15.1601Z" fill="white"/>
<path d="M14.2784 15.1889C14.2784 13.962 14.2734 12.736 14.281 11.5091C14.2844 10.9379 14.8217 10.6045 15.287 10.8711C15.5561 11.0259 15.6297 11.2755 15.6289 11.5717C15.6238 12.8612 15.6272 14.1516 15.6272 15.4411C15.6272 16.5622 15.6246 17.6825 15.6289 18.8036C15.6297 19.1006 15.5476 19.346 15.2735 19.4941C14.8098 19.7445 14.2886 19.423 14.2818 18.8671C14.2708 17.9262 14.2784 16.9853 14.2784 16.0444C14.2776 15.7601 14.2776 15.4749 14.2784 15.1889Z" fill="white"/>
<path d="M8.86725 15.1877C8.86725 13.9617 8.86133 12.7348 8.86979 11.5087C8.87402 10.9469 9.3817 10.6152 9.84369 10.8589C10.0891 10.9883 10.2135 11.2016 10.2135 11.4791C10.2143 13.9422 10.2168 16.4062 10.2118 18.8693C10.2109 19.2949 9.90715 19.5919 9.52132 19.5809C9.14732 19.5699 8.87148 19.2839 8.86894 18.8676C8.86302 17.6407 8.86725 16.4138 8.86725 15.1877Z" fill="white"/>
</g>
<defs>
<clipPath id="clip0_102_1913">
<rect width="24.4915" height="25" fill="white"/>
</clipPath>
</defs>
</svg>
