<svg width="21" height="25" viewBox="0 0 21 25" fill="none" xmlns="http://www.w3.org/2000/svg">
<path d="M10.957 0C11.4284 0.078123 11.9075 0.125648 12.3704 0.240228C15.4654 1.00388 17.6977 2.84433 18.8598 5.80323C20.2413 9.32072 19.6111 12.5654 17.1652 15.4482C17.0441 15.5907 17.0552 15.6819 17.1385 15.8258C18.2661 17.7743 19.3884 19.726 20.5102 21.6772C20.5622 21.7677 20.6202 21.8634 20.6384 21.9636C20.6879 22.2318 20.4568 22.4265 20.156 22.3634C19.4405 22.213 18.7277 22.0515 18.0128 21.8953C17.7205 21.8315 17.4282 21.769 17.1151 21.7013C16.9321 22.2742 16.7544 22.8288 16.578 23.3842C16.4452 23.8021 16.311 24.2194 16.1834 24.6393C16.1294 24.8164 16.0435 24.9486 15.841 24.9681C15.6398 24.9876 15.5292 24.877 15.4393 24.7142C15.2668 24.4011 15.0806 24.0951 14.9074 23.7826C14.7798 23.5528 14.828 23.3425 15.0214 23.2351C15.2115 23.1296 15.3983 23.1915 15.5363 23.4089C15.5871 23.489 15.632 23.5736 15.7082 23.7045C15.9256 23.0215 16.1262 22.3926 16.326 21.7638C16.3853 21.5782 16.4393 21.3907 16.5031 21.2065C16.5942 20.9454 16.7401 20.8653 17.0102 20.9246C17.8351 21.1036 18.6593 21.2853 19.5505 21.4799C18.5161 19.6824 17.5076 17.9299 16.4829 16.1493C15.3423 17.1539 14.0559 17.8511 12.5683 18.2359C12.6139 18.3211 12.6516 18.3973 12.6933 18.4702C13.3176 19.5548 13.9426 20.6394 14.567 21.724C14.6073 21.7944 14.649 21.8653 14.6776 21.9402C14.7499 22.1283 14.6867 22.2833 14.5207 22.3783C14.3547 22.4734 14.1887 22.4454 14.0605 22.2943C14.0084 22.2331 13.9713 22.1589 13.9309 22.0886C13.2571 20.9194 12.5813 19.7521 11.9147 18.5789C11.8326 18.4344 11.748 18.3928 11.5872 18.4175C10.7454 18.547 9.90106 18.5477 9.05993 18.4168C8.88871 18.3901 8.8171 18.4546 8.73833 18.5913C7.57885 20.6147 6.41417 22.6361 5.24558 24.655C5.17136 24.7839 5.04962 24.8854 4.95067 25C4.86929 25 4.78791 25 4.70653 25C4.6206 24.8698 4.50081 24.75 4.45328 24.6068C4.15902 23.7201 3.88103 22.8288 3.59784 21.9389C3.57635 21.8712 3.55031 21.8048 3.52232 21.726C2.51844 21.9454 1.52693 22.1583 0.53737 22.3809C0.35313 22.4226 0.198186 22.42 0.0777464 22.2611C-0.0426932 22.1029 -0.00949103 21.9467 0.0842565 21.7852C0.630466 20.8432 1.17277 19.8979 1.71833 18.9552C1.86611 18.6994 2.05556 18.6271 2.25673 18.7391C2.45985 18.8517 2.495 19.0705 2.34592 19.3309C1.98655 19.9585 1.62393 20.5848 1.26326 21.2117C1.21899 21.2885 1.17798 21.3666 1.10767 21.4949C1.4143 21.4317 1.67731 21.3816 1.93903 21.3237C2.47873 21.2052 3.01712 21.0815 3.55682 20.9617C3.92921 20.879 4.05681 20.9539 4.17204 21.3178C4.42073 22.0997 4.66812 22.8809 4.93765 23.7292C6.00142 21.8822 7.0398 20.0796 8.09707 18.2437C6.6238 17.8589 5.32956 17.1773 4.19027 16.1669C4.14991 16.2216 4.10954 16.2672 4.07959 16.3192C3.8309 16.7483 3.58482 17.1786 3.33678 17.6083C3.15188 17.9292 2.98913 18.0054 2.76322 17.8797C2.53667 17.7534 2.51648 17.5679 2.69617 17.2541C3.00345 16.7183 3.31073 16.1832 3.62648 15.6331C3.48065 15.4612 3.33027 15.2926 3.18899 15.1161C1.6337 13.1761 0.927984 10.9665 1.13501 8.48546C1.34334 5.98552 2.42013 3.91461 4.29248 2.25189C4.51643 2.05333 4.74038 2.03966 4.89142 2.21218C5.04832 2.39186 5.01251 2.59498 4.77749 2.80136C3.23522 4.15679 2.25542 5.8423 1.94489 7.86894C1.50479 10.7432 2.30881 13.2575 4.36995 15.316C6.13813 17.0809 8.31386 17.8921 10.8079 17.7613C14.6067 17.5614 17.8117 14.7997 18.6241 11.0726C19.6371 6.42236 16.6372 1.82482 11.9687 0.897763C10.0267 0.512356 8.16738 0.790995 6.40375 1.69397C6.34581 1.72391 6.28982 1.75712 6.23123 1.78511C6.01249 1.88927 5.80155 1.83394 5.7052 1.65035C5.60885 1.46611 5.67916 1.25322 5.88944 1.13734C6.76507 0.65428 7.69604 0.326163 8.67974 0.149085C8.99809 0.0917945 9.31839 0.0494779 9.63804 0C10.0775 0 10.5176 0 10.957 0Z" fill="white"/>
<path d="M17.0628 9.27379C17.014 9.68914 16.9763 10.0856 16.9196 10.4788C16.8734 10.8011 16.7106 10.9391 16.4672 10.8922C16.2419 10.8493 16.1462 10.6533 16.2022 10.3519C16.6533 7.92161 15.5661 5.45618 13.4698 4.15543C9.80847 1.88401 5.00001 4.13915 4.40302 8.40727C3.93167 11.7783 6.31833 14.9006 9.6965 15.2111C12.229 15.4442 14.1827 14.4071 15.5154 12.2288C15.5707 12.1389 15.6137 12.04 15.6781 11.9573C15.7979 11.8017 15.96 11.7614 16.1332 11.8531C16.3161 11.9501 16.3715 12.1116 16.3044 12.3082C16.2862 12.3616 16.2569 12.4111 16.2295 12.4612C14.9164 14.8824 12.3286 16.256 9.57411 15.9461C6.62301 15.6141 4.39 13.4403 3.78519 10.7861C2.93561 7.06616 5.24544 3.46274 8.97777 2.65612C12.587 1.87619 16.3005 4.37613 16.9151 8.00689C16.9867 8.43006 17.0153 8.86104 17.0628 9.27379Z" fill="white"/>
<path d="M10.4251 4.9309C10.4791 4.98493 10.6126 5.06957 10.6744 5.19066C10.9973 5.81955 11.3046 6.45625 11.6106 7.09295C11.6796 7.23748 11.7616 7.31039 11.9341 7.33123C12.6359 7.41716 13.3371 7.51417 14.033 7.63656C14.1665 7.65999 14.3371 7.79215 14.38 7.91324C14.4178 8.02001 14.3377 8.21727 14.2453 8.31167C13.7459 8.82403 13.2277 9.31946 12.7115 9.81554C12.6151 9.90798 12.5767 9.98871 12.6034 10.1319C12.7355 10.8429 12.8605 11.5557 12.9641 12.2712C12.9829 12.4001 12.9211 12.5759 12.8352 12.6761C12.7173 12.8129 12.5415 12.7699 12.3859 12.6866C11.7623 12.3532 11.1353 12.0271 10.5142 11.6885C10.3762 11.6137 10.2714 11.615 10.1334 11.6898C9.51948 12.0245 8.89841 12.3448 8.28254 12.6742C8.12043 12.7608 7.96288 12.8024 7.80403 12.6826C7.65625 12.5713 7.64193 12.4229 7.67383 12.2458C7.80143 11.5421 7.91145 10.835 8.04166 10.1326C8.0677 9.99131 8.03319 9.90733 7.93619 9.81489C7.42579 9.32466 6.9219 8.82728 6.41279 8.33511C6.28259 8.20881 6.18754 8.08056 6.25655 7.88525C6.32425 7.69385 6.47724 7.64372 6.65628 7.61898C7.34832 7.52263 8.0397 7.41781 8.73239 7.32797C8.88083 7.30844 8.9583 7.2492 9.02145 7.11639C9.32938 6.47122 9.65099 5.83257 9.96153 5.1887C10.0383 5.0292 10.1445 4.92504 10.4251 4.9309ZM8.50844 11.7204C8.85544 11.5381 9.16728 11.3708 9.48237 11.2094C10.5051 10.6873 10.1301 10.6768 11.1698 11.2113C11.4817 11.3715 11.7909 11.5368 12.1346 11.7172C12.0383 11.1579 11.966 10.6436 11.8573 10.1371C11.7896 9.824 11.8488 9.59354 12.0982 9.38261C12.3768 9.14693 12.6255 8.87611 12.8905 8.62416C13.0057 8.51479 13.1294 8.41453 13.2948 8.27066C12.6587 8.17626 12.1138 8.08316 11.5657 8.02001C11.3157 7.99137 11.1711 7.87874 11.0689 7.65804C10.8612 7.20883 10.6373 6.76679 10.4179 6.32279C10.3919 6.27006 10.3547 6.22253 10.3079 6.15027C10.0501 6.6763 9.80138 7.16847 9.56766 7.66781C9.46805 7.88004 9.32808 7.99137 9.08981 8.02001C8.53644 8.08707 7.98632 8.17626 7.48178 8.24982C7.83268 8.62612 8.17577 9.0265 8.55597 9.38912C8.78448 9.60721 8.85153 9.8227 8.78838 10.1254C8.68096 10.6397 8.60479 11.1612 8.50844 11.7204Z" fill="white"/>
</svg>
