<svg width="25" height="25" viewBox="0 0 25 25" fill="none" xmlns="http://www.w3.org/2000/svg">
<path d="M12.9396 25C12.7768 25 12.6141 25 12.4513 25C12.4318 24.987 12.4136 24.9674 12.3914 24.9616C11.7964 24.7949 11.4592 24.403 11.3667 23.7943C11.273 23.1758 11.176 22.558 11.079 21.9402C11.0191 21.5593 10.9559 21.1791 10.8941 20.7957C10.8101 20.8022 10.7613 20.8028 10.7144 20.81C10.0458 20.9148 9.4755 20.7104 9.00285 20.241C7.58492 18.8302 6.17285 17.4136 4.75883 15.9989C4.41248 15.6526 4.21066 15.2346 4.169 14.747C4.15142 14.5393 4.16574 14.329 4.16574 14.107C4.14751 14.1012 4.10975 14.0843 4.07134 14.0784C3.30118 13.9586 2.52777 13.8525 1.76021 13.7158C1.37285 13.6468 0.977676 13.5647 0.61831 13.4131C0.265455 13.2633 0.121579 12.8994 0.000488281 12.5491C0.000488281 12.3864 0.000488281 12.2236 0.000488281 12.0609C0.0642887 11.9131 0.108558 11.7523 0.195796 11.6195C1.05645 10.3077 1.91515 8.99455 2.79469 7.69576C3.11108 7.22898 3.58568 6.97768 4.15207 6.93016C5.31871 6.8325 6.48664 6.74787 7.65263 6.6437C7.77177 6.63329 7.90718 6.55386 7.99246 6.46532C8.35378 6.09098 8.68971 5.69256 9.05038 5.31757C11.9618 2.28705 15.519 0.580714 19.6901 0.137366C20.1412 0.0891903 20.593 0.0455717 21.0449 0C21.7122 0 22.3795 0 23.0468 0C23.1086 0.0143225 23.1704 0.0351553 23.2336 0.0416656C24.0799 0.132809 24.7492 0.735007 24.9315 1.57353C24.9588 1.69917 24.9777 1.82612 25.0005 1.95242C25.0005 2.61972 25.0005 3.28702 25.0005 3.95432C24.936 4.55977 24.8852 5.16653 24.8045 5.76938C24.5304 7.83248 23.9575 9.80638 22.9738 11.6468C21.8704 13.7106 20.3515 15.4377 18.584 16.9546C18.4421 17.0764 18.3561 17.1949 18.3424 17.3967C18.2663 18.5158 18.1673 19.6336 18.0833 20.7527C18.0306 21.4552 17.6908 21.9734 17.1081 22.3529C16.4063 22.8093 15.7162 23.2845 15.0099 23.7331C14.3269 24.168 13.6303 24.5788 12.9396 25ZM21.7167 1.48043C21.7161 1.47001 21.7161 1.46025 21.7154 1.44983C21.1881 1.48694 20.6601 1.51233 20.1341 1.56311C18.0938 1.75842 16.1205 2.23301 14.3022 3.19067C11.0301 4.91458 8.60898 7.49459 6.88833 10.7517C6.81476 10.8903 6.87856 10.9541 6.96189 11.0375C9.29777 13.372 11.6336 15.706 13.965 18.0451C14.0802 18.161 14.1661 18.1642 14.297 18.0861C14.8888 17.7306 15.5079 17.4169 16.0749 17.0262C18.3926 15.4312 20.317 13.4606 21.6692 10.975C22.6242 9.21981 23.1678 7.32272 23.3749 5.34296C23.4862 4.27853 23.4901 3.20174 23.5109 2.13015C23.5207 1.63407 23.3645 1.50256 22.8619 1.48368C22.4817 1.46871 22.0989 1.48043 21.7167 1.48043ZM12.6408 18.8517C10.4611 16.6714 8.32969 14.54 6.19889 12.4085C6.20084 12.4059 6.17871 12.4228 6.17285 12.4443C5.99187 13.1351 5.79981 13.8232 5.64487 14.5198C5.61622 14.6487 5.6989 14.8512 5.79851 14.9521C7.20472 16.3765 8.62135 17.7912 10.0432 19.2C10.1369 19.2931 10.3134 19.3856 10.4279 19.3621C11.1643 19.2111 11.8941 19.0275 12.6408 18.8517ZM16.808 18.3081C15.3881 19.2443 13.9305 19.9624 12.3283 20.4402C12.4832 21.4415 12.6362 22.4284 12.7938 23.4479C14.0262 22.6316 15.2208 21.8451 16.407 21.045C16.5066 20.9773 16.5931 20.825 16.6055 20.7039C16.6843 19.9285 16.7396 19.1505 16.808 18.3081ZM6.69107 8.19314C5.84408 8.2628 5.04983 8.31488 4.26014 8.40473C4.12147 8.42035 3.96588 8.57334 3.87799 8.70354C3.20874 9.69375 2.55446 10.6944 1.89562 11.6917C1.78885 11.8539 1.68274 12.016 1.55709 12.2074C2.57594 12.3643 3.56615 12.5172 4.56157 12.6709C5.04137 11.059 5.76271 9.60261 6.69107 8.19314Z" fill="white"/>
<path d="M0.000651024 24.0722C0.156897 23.8795 0.298169 23.6718 0.471993 23.4967C1.88667 22.0729 3.3046 20.6523 4.73165 19.2416C4.86771 19.1075 5.06302 18.9968 5.24791 18.9564C5.54087 18.8933 5.79151 19.0267 5.94906 19.2884C6.11052 19.5567 6.09815 19.8308 5.92302 20.0912C5.87354 20.1647 5.80909 20.2285 5.74594 20.2917C4.29286 21.7461 2.84042 23.2011 1.38278 24.6503C1.24801 24.7844 1.08005 24.884 0.92771 24.9999C0.797505 24.9999 0.6673 24.9999 0.537095 24.9999C0.294914 24.884 0.11458 24.7063 0 24.4628C0.000651024 24.3326 0.000651024 24.2024 0.000651024 24.0722Z" fill="white"/>
<path d="M0.000488281 19.7756C0.134599 19.5771 0.24332 19.3538 0.40803 19.1845C1.11634 18.4554 1.84224 17.7438 2.55901 17.0225C2.76864 16.8115 3.00822 16.6982 3.30574 16.7692C3.84804 16.8994 4.06874 17.5596 3.67878 17.9638C2.87737 18.7952 2.05968 19.6109 1.22832 20.413C0.85333 20.775 0.260247 20.6116 0.0629866 20.1278C0.0415028 20.0758 0.0213211 20.023 0.000488281 19.9709C0.000488281 19.9058 0.000488281 19.8407 0.000488281 19.7756Z" fill="white"/>
<path d="M5.02962 25C4.98535 24.9818 4.94173 24.9623 4.89681 24.9453C4.3838 24.7513 4.22105 24.1446 4.6019 23.7533C5.3968 22.9376 6.20472 22.1349 7.01655 21.3361C7.3043 21.0529 7.75285 21.0665 8.03149 21.3374C8.31925 21.6173 8.33813 22.0678 8.04386 22.3679C7.25157 23.1745 6.45081 23.9734 5.64354 24.7643C5.53351 24.8724 5.3662 24.9225 5.22558 24.9994C5.15982 25 5.09472 25 5.02962 25Z" fill="white"/>
<path d="M0.000488281 24.4629C0.115069 24.7064 0.295402 24.8841 0.537583 25C0.358552 25 0.17952 25 0.000488281 25C0.000488281 24.821 0.000488281 24.6419 0.000488281 24.4629Z" fill="white"/>
<path d="M17.1145 11.5308C15.0866 11.5269 13.4649 9.89473 13.4688 7.86354C13.4727 5.84211 15.1185 4.20413 17.1373 4.21194C19.1555 4.21975 20.7993 5.8727 20.7908 7.88632C20.7824 9.90841 19.1418 11.5347 17.1145 11.5308ZM14.9342 7.86809C14.9316 9.08291 15.8951 10.0581 17.1067 10.066C18.328 10.0738 19.3202 9.09723 19.3254 7.88177C19.3306 6.67412 18.3293 5.67284 17.1204 5.6774C15.9134 5.6813 14.9368 6.65979 14.9342 7.86809Z" fill="white"/>
</svg>
